<svg width="131" height="47" viewBox="0 0 131 47" fill="none" xmlns="http://www.w3.org/2000/svg">
<rect x="0.5" width="130" height="47" rx="8" fill="#FC811C"/>
<path d="M30.2977 24.2125C30.3233 22.2268 31.3926 20.3479 33.089 19.3078C32.0188 17.7835 30.2264 16.8171 28.3615 16.7589C26.3725 16.5507 24.4442 17.9459 23.4306 17.9459C22.3974 17.9459 20.8369 16.7796 19.1564 16.8141C16.966 16.8847 14.924 18.1267 13.8583 20.0365C11.5675 23.9919 13.2763 29.8051 15.4706 33.0024C16.5685 34.568 17.8517 36.3168 19.5306 36.2548C21.1736 36.1868 21.7872 35.21 23.7704 35.21C25.7351 35.21 26.3108 36.2548 28.0238 36.2154C29.7868 36.1868 30.8975 34.6428 31.9569 33.0624C32.7458 31.9468 33.3528 30.7139 33.7555 29.4092C31.6837 28.5353 30.3001 26.456 30.2977 24.2125Z" fill="white"/>
<path d="M27.0621 14.6563C28.0233 13.5054 28.4969 12.0263 28.3822 10.5328C26.9136 10.6867 25.5571 11.3866 24.5829 12.4933C23.6302 13.5746 23.1344 15.0277 23.2282 16.4641C24.6973 16.4792 26.1415 15.7981 27.0621 14.6563Z" fill="white"/>
<path d="M88.897 22.1613V24.5676H87.3846V26.1456H88.897V31.5075C88.897 33.3383 89.7275 34.0707 91.8168 34.0707C92.184 34.0707 92.5337 34.0271 92.8397 33.9748V32.4142C92.5774 32.4403 92.4113 32.4578 92.1228 32.4578C91.1874 32.4578 90.7765 32.0218 90.7765 31.0279V26.1456H92.8397V24.5676H90.7765V22.1613H88.897Z" fill="white"/>
<path d="M98.1621 34.2014C100.942 34.2014 102.647 32.3444 102.647 29.2668C102.647 26.2067 100.933 24.3409 98.1621 24.3409C95.3822 24.3409 93.6688 26.2067 93.6688 29.2668C93.6688 32.3444 95.3734 34.2014 98.1621 34.2014ZM98.1621 32.5362C96.5274 32.5362 95.6095 31.3418 95.6095 29.2668C95.6095 27.2093 96.5274 26.0061 98.1621 26.0061C99.7882 26.0061 100.715 27.2093 100.715 29.2668C100.715 31.3331 99.7882 32.5362 98.1621 32.5362Z" fill="white"/>
<path d="M104.105 34.0184H105.985V28.4124C105.985 27.0785 106.99 26.1805 108.415 26.1805C108.747 26.1805 109.307 26.2415 109.464 26.2938V24.4455C109.263 24.3932 108.905 24.3671 108.625 24.3671C107.384 24.3671 106.326 25.0471 106.055 25.98H105.915V24.524H104.105V34.0184Z" fill="white"/>
<path d="M114.131 25.9364C115.521 25.9364 116.43 26.9041 116.474 28.395H111.666C111.771 26.9129 112.741 25.9364 114.131 25.9364ZM116.465 31.4551C116.115 32.1962 115.337 32.606 114.201 32.606C112.697 32.606 111.727 31.551 111.666 29.8858V29.7812H118.388V29.1273C118.388 26.1456 116.789 24.3409 114.14 24.3409C111.456 24.3409 109.751 26.2677 109.751 29.3017C109.751 32.3357 111.421 34.2014 114.148 34.2014C116.325 34.2014 117.846 33.1552 118.275 31.4551H116.465Z" fill="white"/>
<path d="M76.5713 30.5122C76.7163 32.8436 78.6644 34.3346 81.5638 34.3346C84.6627 34.3346 86.6017 32.7713 86.6017 30.2773C86.6017 28.3164 85.4963 27.232 82.8142 26.6085L81.3736 26.2561C79.6701 25.8585 78.9815 25.3254 78.9815 24.3946C78.9815 23.2199 80.0507 22.4518 81.6545 22.4518C83.1767 22.4518 84.2277 23.2018 84.418 24.4037H86.3933C86.2755 22.2078 84.3365 20.6626 81.6816 20.6626C78.8275 20.6626 76.9247 22.2078 76.9247 24.5302C76.9247 26.4459 78.0029 27.5845 80.3678 28.1357L82.0531 28.5423C83.7838 28.949 84.5449 29.5454 84.5449 30.5394C84.5449 31.696 83.3488 32.5364 81.7179 32.5364C79.9691 32.5364 78.755 31.7502 78.5828 30.5122H76.5713Z" fill="white"/>
<path d="M57.1013 24.3671C55.8075 24.3671 54.6885 25.0122 54.1115 26.0933H53.9717V24.524H52.1621V37.1744H54.0416V32.5798H54.1902C54.6885 33.5824 55.7638 34.1753 57.1188 34.1753C59.5228 34.1753 61.0527 32.2834 61.0527 29.2668C61.0527 26.2503 59.5228 24.3671 57.1013 24.3671ZM56.568 32.4926C54.9945 32.4926 54.0066 31.2546 54.0066 29.2755C54.0066 27.2877 54.9945 26.0497 56.5768 26.0497C58.1678 26.0497 59.1207 27.2616 59.1207 29.2668C59.1207 31.2808 58.1678 32.4926 56.568 32.4926Z" fill="white"/>
<path d="M67.6295 24.3671C66.3357 24.3671 65.2167 25.0122 64.6397 26.0933H64.4998V24.524H62.6902V37.1744H64.5698V32.5798H64.7184C65.2167 33.5824 66.2919 34.1753 67.647 34.1753C70.051 34.1753 71.5809 32.2834 71.5809 29.2668C71.5809 26.2503 70.051 24.3671 67.6295 24.3671ZM67.0962 32.4926C65.5227 32.4926 64.5348 31.2546 64.5348 29.2755C64.5348 27.2877 65.5227 26.0497 67.105 26.0497C68.696 26.0497 69.6489 27.2616 69.6489 29.2668C69.6489 31.2808 68.696 32.4926 67.0962 32.4926Z" fill="white"/>
<path d="M48.7899 34.0184H50.9463L46.2256 20.9789H44.042L39.3213 34.0184H41.4053L42.6104 30.5574H47.5938L48.7899 34.0184ZM45.0296 23.3464H45.1836L47.0774 28.8586H43.1268L45.0296 23.3464Z" fill="white"/>
<path d="M39.2686 11.7818V16.936H41.1345C42.6746 16.936 43.5664 15.9894 43.5664 14.3428C43.5664 12.7212 42.6674 11.7818 41.1345 11.7818H39.2686ZM40.0708 12.5105H41.045C42.1159 12.5105 42.7498 13.1891 42.7498 14.3535C42.7498 15.5358 42.1266 16.2073 41.045 16.2073H40.0708V12.5105Z" fill="white"/>
<path d="M46.2976 17.011C47.4366 17.011 48.135 16.2502 48.135 14.9893C48.135 13.7356 47.433 12.9712 46.2976 12.9712C45.1587 12.9712 44.4567 13.7356 44.4567 14.9893C44.4567 16.2502 45.1551 17.011 46.2976 17.011ZM46.2976 16.3288C45.6279 16.3288 45.2518 15.8394 45.2518 14.9893C45.2518 14.1464 45.6279 13.6534 46.2976 13.6534C46.9638 13.6534 47.3434 14.1464 47.3434 14.9893C47.3434 15.8358 46.9638 16.3288 46.2976 16.3288Z" fill="white"/>
<path d="M54.0824 13.0462H53.3124L52.6176 16.0144H52.5567L51.7544 13.0462H51.0166L50.2144 16.0144H50.1571L49.4587 13.0462H48.6779L49.7524 16.936H50.5439L51.3461 14.0714H51.407L52.2129 16.936H53.0115L54.0824 13.0462Z" fill="white"/>
<path d="M54.9692 16.936H55.7392V14.6607C55.7392 14.0535 56.101 13.6749 56.6704 13.6749C57.2399 13.6749 57.5121 13.9856 57.5121 14.6107V16.936H58.2821V14.4178C58.2821 13.4927 57.8022 12.9712 56.9319 12.9712C56.3445 12.9712 55.9577 13.232 55.7679 13.6642H55.7106V13.0462H54.9692V16.936Z" fill="white"/>
<path d="M59.4948 16.936H60.2648V11.5282H59.4948V16.936Z" fill="white"/>
<path d="M63.1608 17.011C64.2998 17.011 64.9982 16.2502 64.9982 14.9893C64.9982 13.7356 64.2962 12.9712 63.1608 12.9712C62.0219 12.9712 61.3199 13.7356 61.3199 14.9893C61.3199 16.2502 62.0183 17.011 63.1608 17.011ZM63.1608 16.3288C62.4911 16.3288 62.115 15.8394 62.115 14.9893C62.115 14.1464 62.4911 13.6534 63.1608 13.6534C63.827 13.6534 64.2066 14.1464 64.2066 14.9893C64.2066 15.8358 63.827 16.3288 63.1608 16.3288Z" fill="white"/>
<path d="M67.2925 16.3538C66.8734 16.3538 66.569 16.1502 66.569 15.8001C66.569 15.4572 66.8126 15.2751 67.3498 15.2393L68.3025 15.1786V15.5037C68.3025 15.9859 67.8727 16.3538 67.2925 16.3538ZM67.0955 17.0003C67.6077 17.0003 68.0339 16.7788 68.2666 16.3895H68.3275V16.936H69.0689V14.2785C69.0689 13.457 68.5174 12.9712 67.5396 12.9712C66.655 12.9712 66.0246 13.3998 65.9458 14.0678H66.6908C66.7767 13.7927 67.074 13.6356 67.5038 13.6356C68.0303 13.6356 68.3025 13.8678 68.3025 14.2785V14.6143L67.2459 14.675C66.3183 14.7321 65.7954 15.1358 65.7954 15.8358C65.7954 16.5466 66.3434 17.0003 67.0955 17.0003Z" fill="white"/>
<path d="M71.682 17.0003C72.2192 17.0003 72.6741 16.7467 72.9069 16.3216H72.9677V16.936H73.7055V11.5282H72.9355V13.6642H72.8782C72.6669 13.2355 72.2156 12.9819 71.682 12.9819C70.6971 12.9819 70.0631 13.7606 70.0631 14.9893C70.0631 16.2216 70.6899 17.0003 71.682 17.0003ZM71.9005 13.6713C72.5451 13.6713 72.9498 14.1821 72.9498 14.9929C72.9498 15.8073 72.5487 16.3109 71.9005 16.3109C71.2486 16.3109 70.8582 15.8144 70.8582 14.9893C70.8582 14.1714 71.2522 13.6713 71.9005 13.6713Z" fill="white"/>
<path d="M78.6989 17.011C79.8378 17.011 80.5362 16.2502 80.5362 14.9893C80.5362 13.7356 79.8342 12.9712 78.6989 12.9712C77.56 12.9712 76.858 13.7356 76.858 14.9893C76.858 16.2502 77.5564 17.011 78.6989 17.011ZM78.6989 16.3288C78.0291 16.3288 77.6531 15.8394 77.6531 14.9893C77.6531 14.1464 78.0291 13.6534 78.6989 13.6534C79.3651 13.6534 79.7447 14.1464 79.7447 14.9893C79.7447 15.8358 79.3651 16.3288 78.6989 16.3288Z" fill="white"/>
<path d="M81.5555 16.936H82.3255V14.6607C82.3255 14.0535 82.6873 13.6749 83.2567 13.6749C83.8262 13.6749 84.0984 13.9856 84.0984 14.6107V16.936H84.8684V14.4178C84.8684 13.4927 84.3885 12.9712 83.5182 12.9712C82.9308 12.9712 82.544 13.232 82.3542 13.6642H82.2969V13.0462H81.5555V16.936Z" fill="white"/>
<path d="M88.4148 12.0783V13.0641H87.7952V13.7106H88.4148V15.9073C88.4148 16.6574 88.7551 16.9574 89.611 16.9574C89.7615 16.9574 89.9047 16.9395 90.0301 16.9181V16.2788C89.9226 16.2895 89.8546 16.2966 89.7364 16.2966C89.3532 16.2966 89.1848 16.118 89.1848 15.7108V13.7106H90.0301V13.0641H89.1848V12.0783H88.4148Z" fill="white"/>
<path d="M91.0637 16.936H91.8337V14.6643C91.8337 14.0749 92.1847 13.6784 92.8151 13.6784C93.3595 13.6784 93.6496 13.9928 93.6496 14.6143V16.936H94.4196V14.425C94.4196 13.4999 93.9074 12.9748 93.0765 12.9748C92.4892 12.9748 92.0773 13.2355 91.8875 13.6713H91.8266V11.5282H91.0637V16.936Z" fill="white"/>
<path d="M97.1974 13.6249C97.7669 13.6249 98.1394 14.0213 98.1573 14.6321H96.1874C96.2304 14.0249 96.628 13.6249 97.1974 13.6249ZM98.1537 15.8859C98.0104 16.1895 97.6917 16.3573 97.2261 16.3573C96.61 16.3573 96.2125 15.9251 96.1874 15.2429V15.2001H98.9416V14.9322C98.9416 13.7106 98.2862 12.9712 97.201 12.9712C96.1015 12.9712 95.4031 13.7606 95.4031 15.0036C95.4031 16.2466 96.0871 17.011 97.2046 17.011C98.0964 17.011 98.7196 16.5824 98.8951 15.8859H98.1537Z" fill="white"/>
</svg>
