<svg width="13" height="14" viewBox="0 0 13 14" fill="none" xmlns="http://www.w3.org/2000/svg">
<path d="M4.60567 2.80815L4.33723 2.20417C4.16171 1.80925 4.07395 1.61179 3.94271 1.46067C3.77822 1.27129 3.56381 1.13196 3.32395 1.05857C3.13256 1 2.91647 1 2.48431 1C1.85211 1 1.53601 1 1.27065 1.12153C0.958079 1.26468 0.675793 1.57552 0.563319 1.9004C0.467839 2.17619 0.495193 2.45962 0.549886 3.02647C1.13211 9.06013 4.44005 12.3681 10.4737 12.9503C11.0405 13.005 11.324 13.0323 11.5997 12.9369C11.9247 12.8244 12.2355 12.5421 12.3787 12.2295C12.5001 11.9641 12.5001 11.6481 12.5001 11.0159C12.5001 10.5837 12.5001 10.3676 12.4416 10.1762C12.3682 9.93633 12.2289 9.72193 12.0395 9.55747C11.8884 9.4262 11.6909 9.33847 11.296 9.16293L10.692 8.89447C10.2643 8.7044 10.0505 8.6094 9.83321 8.58873C9.62521 8.56893 9.41554 8.59813 9.22087 8.67393C9.01747 8.75313 8.83774 8.90293 8.47814 9.20253C8.12027 9.5008 7.94134 9.64993 7.72267 9.7298C7.52881 9.8006 7.27254 9.82687 7.06841 9.79673C6.83807 9.7628 6.66174 9.6686 6.30901 9.48007C5.21167 8.89367 4.60652 8.28853 4.02008 7.19113C3.83159 6.83847 3.73735 6.66207 3.70341 6.4318C3.67333 6.2276 3.69955 5.97133 3.77037 5.77753C3.85025 5.55885 3.99937 5.37991 4.29763 5.022C4.59725 4.66245 4.74706 4.48268 4.82627 4.27927C4.90207 4.08463 4.93125 3.87493 4.91147 3.66699C4.89079 3.44968 4.79575 3.23584 4.60567 2.80815Z" stroke="white" stroke-linecap="round"/>
</svg>
