<svg width="17" height="16" viewBox="0 0 17 16" fill="none" xmlns="http://www.w3.org/2000/svg">
<path fill-rule="evenodd" clip-rule="evenodd" d="M10.9554 9.54959L8.28877 11.6674V12.7104C8.28877 12.8369 8.42418 12.9173 8.53524 12.8567L10.5211 11.7735C10.7889 11.6275 10.9554 11.3469 10.9554 11.0419V9.54959ZM7.28877 11.6331L4.98907 9.33344H3.9118C3.02623 9.33344 2.46353 8.38555 2.88759 7.60811L3.9708 5.62221C4.29207 5.03323 4.90938 4.66677 5.58028 4.66677H7.8901C9.62949 2.81576 11.5718 1.55946 14.083 1.36094C14.7566 1.30769 15.3145 1.86566 15.2613 2.53922C15.0627 5.05044 13.8064 6.99272 11.9554 8.7321V11.0419C11.9554 11.7128 11.589 12.3302 11 12.6514L9.0141 13.7346C8.23666 14.1587 7.28877 13.596 7.28877 12.7104V11.6331ZM7.07262 5.66677H5.58028C5.27533 5.66677 4.99473 5.83334 4.8487 6.10106L3.76548 8.08696C3.7049 8.19803 3.78529 8.33344 3.9118 8.33344H4.95477L7.07262 5.66677Z" fill="#FC811C"/>
<path d="M1.95442 12.7963C1.95442 11.7634 2.79181 10.926 3.82479 10.926C4.85777 10.926 5.69516 11.7634 5.69516 12.7963C5.69516 13.8293 4.85777 14.6667 3.82479 14.6667H2.45442C2.17828 14.6667 1.95442 14.4429 1.95442 14.1667V12.7963Z" fill="#FC811C"/>
</svg>
