<svg width="131" height="47" viewBox="0 0 131 47" fill="none" xmlns="http://www.w3.org/2000/svg">
<rect x="0.5" width="130" height="47" rx="8" fill="#FC811C"/>
<g filter="url(#filter0_ii_10_5430)">
<path d="M13.4743 11.9016C13.1934 12.1911 13.0273 12.6405 13.0273 13.2223V34.0114C13.0273 34.5942 13.1934 35.0425 13.4743 35.3321L13.5457 35.3997L25.5047 23.7541V23.6168V23.4796L13.5457 11.833L13.4743 11.9016Z" fill="url(#paint0_linear_10_5430)"/>
<path d="M29.4906 27.637L25.5049 23.7538V23.6166V23.4794L29.4915 19.5972L29.5813 19.647L34.3045 22.2602C35.653 23.0065 35.653 24.2276 34.3045 24.9749L29.5813 27.5881L29.4906 27.637Z" fill="url(#paint1_linear_10_5430)"/>
<g filter="url(#filter1_i_10_5430)">
<path d="M29.5814 27.5871L25.5041 23.6166L13.4746 35.3318C13.9186 35.7905 14.6532 35.8469 15.4805 35.3901L29.5814 27.5871Z" fill="url(#paint2_linear_10_5430)"/>
</g>
<path d="M29.5814 19.6462L15.4805 11.8442C14.6532 11.3865 13.9186 11.4438 13.4746 11.9025L25.505 23.6177L29.5814 19.6462Z" fill="url(#paint3_linear_10_5430)"/>
</g>
<path d="M65.6475 24.7542C63.5032 24.7542 61.7555 26.3355 61.7555 28.5134C61.7555 30.6781 63.5032 32.2726 65.6475 32.2726C67.7927 32.2726 69.5404 30.6781 69.5404 28.5134C69.5395 26.3355 67.7918 24.7542 65.6475 24.7542ZM65.6475 30.793C64.4723 30.793 63.4594 29.8534 63.4594 28.5143C63.4594 27.161 64.4732 26.2356 65.6475 26.2356C66.8226 26.2356 67.8355 27.161 67.8355 28.5143C67.8355 29.8525 66.8226 30.793 65.6475 30.793ZM57.156 24.7542C55.0118 24.7542 53.2641 26.3355 53.2641 28.5134C53.2641 30.6781 55.0118 32.2726 57.156 32.2726C59.3012 32.2726 61.0489 30.6781 61.0489 28.5134C61.0489 26.3355 59.3012 24.7542 57.156 24.7542ZM57.156 30.793C55.9809 30.793 54.968 29.8534 54.968 28.5143C54.968 27.161 55.9818 26.2356 57.156 26.2356C58.3312 26.2356 59.3441 27.161 59.3441 28.5143C59.345 29.8525 58.3312 30.793 57.156 30.793ZM47.0564 25.9086V27.5031H50.9931C50.8754 28.4003 50.5673 29.0552 50.0969 29.5104C49.5243 30.0655 48.6281 30.6781 47.0564 30.6781C44.6331 30.6781 42.7387 28.7839 42.7387 26.4345C42.7387 24.0851 44.6331 22.1909 47.0564 22.1909C48.3638 22.1909 49.3183 22.6894 50.023 23.3302L51.1836 22.205C50.199 21.2937 48.8925 20.5963 47.0564 20.5963C43.737 20.5963 40.9463 23.2162 40.9463 26.4345C40.9463 29.6528 43.737 32.2726 47.0564 32.2726C48.8479 32.2726 50.1999 31.7025 51.2565 30.6348C52.3433 29.5812 52.6815 28.0997 52.6815 26.9038C52.6815 26.5344 52.6523 26.1923 52.5931 25.9077L47.0564 25.9086ZM88.363 27.1469C88.0403 26.3072 87.0557 24.7542 85.0436 24.7542C83.0461 24.7542 81.3859 26.278 81.3859 28.5134C81.3859 30.6206 83.0315 32.2726 85.2341 32.2726C87.011 32.2726 88.0394 31.219 88.466 30.6065L87.1441 29.7517C86.7037 30.3784 86.1011 30.7912 85.2341 30.7912C84.368 30.7912 83.7508 30.4067 83.3542 29.6519L88.539 27.5729L88.363 27.1469ZM83.0752 28.4003C83.0315 26.9471 84.2358 26.2073 85.1028 26.2073C85.7784 26.2073 86.3509 26.5352 86.5424 27.0046L83.0752 28.4003ZM78.8605 32.0455H80.5635V20.9958H78.8605V32.0455ZM76.0689 25.5948H76.0106C75.6286 25.1528 74.8938 24.7542 73.9693 24.7542C72.0302 24.7542 70.2533 26.4062 70.2533 28.5284C70.2533 30.6356 72.0302 32.2735 73.9693 32.2735C74.8947 32.2735 75.6286 31.8749 76.0106 31.4197H76.0689V31.9606C76.0689 33.3987 75.2758 34.1677 73.9985 34.1677C72.9555 34.1677 72.3092 33.442 72.0448 32.8295L70.5615 33.4279C70.9872 34.424 72.1177 35.6491 73.9985 35.6491C75.996 35.6491 77.6854 34.5098 77.6854 31.7326V24.9831H76.0699L76.0689 25.5948ZM74.1161 30.793C72.941 30.793 71.9572 29.8384 71.9572 28.5284C71.9572 27.2035 72.941 26.2356 74.1161 26.2356C75.2758 26.2356 76.1865 27.2035 76.1865 28.5284C76.1865 29.8384 75.2758 30.793 74.1161 30.793ZM96.3439 20.9958H92.2678V32.0455H93.968V27.8593H96.343C98.2283 27.8593 100.083 26.5361 100.083 24.428C100.083 22.3199 98.2293 20.9958 96.3439 20.9958ZM96.3877 26.3213H93.968V22.5338H96.3877C97.6595 22.5338 98.3815 23.5547 98.3815 24.428C98.3815 25.2836 97.6595 26.3213 96.3877 26.3213ZM106.901 24.7347C105.67 24.7347 104.394 25.2607 103.866 26.4265L105.376 27.0373C105.699 26.4265 106.3 26.2268 106.93 26.2268C107.81 26.2268 108.705 26.7385 108.719 27.6481V27.7621C108.411 27.5915 107.751 27.336 106.945 27.336C105.318 27.336 103.66 28.2032 103.66 29.8233C103.66 31.3021 104.995 32.2541 106.49 32.2541C107.633 32.2541 108.264 31.7564 108.66 31.1731H108.718V32.026H110.361V27.7895C110.362 25.829 108.85 24.7347 106.901 24.7347ZM106.695 30.7903C106.139 30.7903 105.361 30.5199 105.361 29.8516C105.361 28.9987 106.33 28.6716 107.166 28.6716C107.912 28.6716 108.265 28.8281 108.719 29.0411C108.587 30.0655 107.678 30.7903 106.695 30.7903ZM116.344 24.976L114.393 29.7668H114.335L112.311 24.976H110.479L113.514 31.6716L111.783 35.3963H113.557L118.235 24.976H116.344ZM101.022 32.0455H102.722V20.9958H101.022V32.0455Z" fill="white"/>
<path d="M46.8437 14.46C46.8437 15.1873 46.6178 15.7662 46.1651 16.1984C45.6514 16.7122 44.981 16.9691 44.1575 16.9691C43.3687 16.9691 42.6974 16.7087 42.1463 16.188C41.5944 15.6664 41.3184 15.0207 41.3184 14.25C41.3184 13.4784 41.5944 12.8327 42.1463 12.312C42.6974 11.7904 43.3687 11.53 44.1575 11.53C44.5492 11.53 44.9236 11.6029 45.2788 11.7479C45.635 11.8937 45.9201 12.0872 46.1332 12.3293L45.6532 12.7876C45.2916 12.3753 44.7933 12.1696 44.1566 12.1696C43.581 12.1696 43.0836 12.3623 42.6637 12.7477C42.2438 13.133 42.0343 13.6338 42.0343 14.2491C42.0343 14.8644 42.2438 15.3652 42.6637 15.7505C43.0836 16.1359 43.581 16.3286 44.1566 16.3286C44.7669 16.3286 45.2761 16.135 45.6832 15.7471C45.9474 15.4945 46.1004 15.143 46.1414 14.6926H44.1566V14.0668H46.8045C46.8318 14.2031 46.8437 14.3342 46.8437 14.46Z" fill="white"/>
<path d="M51.0429 12.2851H48.5544V13.9358H50.7988V14.5616H48.5544V16.2123H51.0429V16.8528H47.8521V11.6455H51.0429V12.2851Z" fill="white"/>
<path d="M54.004 16.8528H53.3017V12.2851H51.7751V11.6455H55.5306V12.2851H54.004V16.8528Z" fill="white"/>
<path d="M58.2477 16.8528V11.6455H58.95V16.8528H58.2477Z" fill="white"/>
<path d="M62.0644 16.8528H61.3621V12.2851H59.8355V11.6455H63.591V12.2851H62.0644V16.8528Z" fill="white"/>
<path d="M70.7001 16.1802C70.1627 16.7061 69.495 16.9691 68.6962 16.9691C67.8974 16.9691 67.2297 16.7061 66.6932 16.1802C66.1558 15.6542 65.888 15.0103 65.888 14.2491C65.888 13.488 66.1558 12.844 66.6932 12.3181C67.2297 11.7922 67.8974 11.5283 68.6962 11.5283C69.4905 11.5283 70.1573 11.793 70.6965 12.3216C71.2357 12.8501 71.5053 13.4923 71.5053 14.2491C71.5053 15.0103 71.2366 15.6542 70.7001 16.1802ZM67.2115 15.7436C67.6159 16.1342 68.1105 16.3286 68.6962 16.3286C69.2819 16.3286 69.7774 16.1333 70.1809 15.7436C70.5854 15.3531 70.7885 14.8549 70.7885 14.2491C70.7885 13.6434 70.5854 13.1452 70.1809 12.7546C69.7774 12.3641 69.2819 12.1697 68.6962 12.1697C68.1105 12.1697 67.6159 12.365 67.2115 12.7546C66.808 13.1452 66.6049 13.6434 66.6049 14.2491C66.6049 14.8549 66.808 15.3531 67.2115 15.7436Z" fill="white"/>
<path d="M72.4909 16.8528V11.6455H73.3453L76.0014 15.6959H76.0315L76.0014 14.6926V11.6455H76.7037V16.8528H75.9704L73.1914 12.6054H73.1613L73.1914 13.6086V16.8528H72.4909Z" fill="white"/>
<path d="M46.8437 14.46C46.8437 15.1873 46.6178 15.7662 46.1651 16.1984C45.6514 16.7122 44.981 16.9691 44.1575 16.9691C43.3687 16.9691 42.6974 16.7087 42.1463 16.188C41.5944 15.6664 41.3184 15.0207 41.3184 14.25C41.3184 13.4784 41.5944 12.8327 42.1463 12.312C42.6974 11.7904 43.3687 11.53 44.1575 11.53C44.5492 11.53 44.9236 11.6029 45.2788 11.7479C45.635 11.8937 45.9201 12.0872 46.1332 12.3293L45.6532 12.7876C45.2916 12.3753 44.7933 12.1696 44.1566 12.1696C43.581 12.1696 43.0836 12.3623 42.6637 12.7477C42.2438 13.133 42.0343 13.6338 42.0343 14.2491C42.0343 14.8644 42.2438 15.3652 42.6637 15.7505C43.0836 16.1359 43.581 16.3286 44.1566 16.3286C44.7669 16.3286 45.2761 16.135 45.6832 15.7471C45.9474 15.4945 46.1004 15.143 46.1414 14.6926H44.1566V14.0668H46.8045C46.8318 14.2031 46.8437 14.3342 46.8437 14.46Z" stroke="white" stroke-width="0.204511" stroke-miterlimit="10"/>
<path d="M51.0429 12.2851H48.5544V13.9358H50.7988V14.5616H48.5544V16.2123H51.0429V16.8528H47.8521V11.6455H51.0429V12.2851Z" stroke="white" stroke-width="0.204511" stroke-miterlimit="10"/>
<path d="M54.004 16.8528H53.3017V12.2851H51.7751V11.6455H55.5306V12.2851H54.004V16.8528Z" stroke="white" stroke-width="0.204511" stroke-miterlimit="10"/>
<path d="M58.2477 16.8528V11.6455H58.95V16.8528H58.2477Z" stroke="white" stroke-width="0.204511" stroke-miterlimit="10"/>
<path d="M62.0644 16.8528H61.3621V12.2851H59.8355V11.6455H63.591V12.2851H62.0644V16.8528Z" stroke="white" stroke-width="0.204511" stroke-miterlimit="10"/>
<path d="M70.7001 16.1802C70.1627 16.7061 69.495 16.9691 68.6962 16.9691C67.8974 16.9691 67.2297 16.7061 66.6932 16.1802C66.1558 15.6542 65.888 15.0103 65.888 14.2491C65.888 13.488 66.1558 12.844 66.6932 12.3181C67.2297 11.7922 67.8974 11.5283 68.6962 11.5283C69.4905 11.5283 70.1573 11.793 70.6965 12.3216C71.2357 12.8501 71.5053 13.4923 71.5053 14.2491C71.5053 15.0103 71.2366 15.6542 70.7001 16.1802ZM67.2115 15.7436C67.6159 16.1342 68.1105 16.3286 68.6962 16.3286C69.2819 16.3286 69.7774 16.1333 70.1809 15.7436C70.5854 15.3531 70.7885 14.8549 70.7885 14.2491C70.7885 13.6434 70.5854 13.1452 70.1809 12.7546C69.7774 12.3641 69.2819 12.1697 68.6962 12.1697C68.1105 12.1697 67.6159 12.365 67.2115 12.7546C66.808 13.1452 66.6049 13.6434 66.6049 14.2491C66.6049 14.8549 66.808 15.3531 67.2115 15.7436Z" stroke="white" stroke-width="0.204511" stroke-miterlimit="10"/>
<path d="M72.4909 16.8528V11.6455H73.3453L76.0014 15.6959H76.0315L76.0014 14.6926V11.6455H76.7037V16.8528H75.9704L73.1914 12.6054H73.1613L73.1914 13.6086V16.8528H72.4909Z" stroke="white" stroke-width="0.204511" stroke-miterlimit="10"/>
<defs>
<filter id="filter0_ii_10_5430" x="13.0273" y="11.5283" width="22.2885" height="24.1772" filterUnits="userSpaceOnUse" color-interpolation-filters="sRGB">
<feFlood flood-opacity="0" result="BackgroundImageFix"/>
<feBlend mode="normal" in="SourceGraphic" in2="BackgroundImageFix" result="shape"/>
<feColorMatrix in="SourceAlpha" type="matrix" values="0 0 0 0 0 0 0 0 0 0 0 0 0 0 0 0 0 0 127 0" result="hardAlpha"/>
<feOffset dy="-0.795"/>
<feComposite in2="hardAlpha" operator="arithmetic" k2="-1" k3="1"/>
<feColorMatrix type="matrix" values="0 0 0 0 0 0 0 0 0 0 0 0 0 0 0 0 0 0 0.12 0"/>
<feBlend mode="normal" in2="shape" result="effect1_innerShadow_10_5430"/>
<feColorMatrix in="SourceAlpha" type="matrix" values="0 0 0 0 0 0 0 0 0 0 0 0 0 0 0 0 0 0 127 0" result="hardAlpha"/>
<feOffset dy="0.795"/>
<feComposite in2="hardAlpha" operator="arithmetic" k2="-1" k3="1"/>
<feColorMatrix type="matrix" values="0 0 0 0 1 0 0 0 0 1 0 0 0 0 1 0 0 0 0.25 0"/>
<feBlend mode="normal" in2="effect1_innerShadow_10_5430" result="effect2_innerShadow_10_5430"/>
</filter>
<filter id="filter1_i_10_5430" x="13.4746" y="23.6166" width="16.1068" height="12.089" filterUnits="userSpaceOnUse" color-interpolation-filters="sRGB">
<feFlood flood-opacity="0" result="BackgroundImageFix"/>
<feBlend mode="normal" in="SourceGraphic" in2="BackgroundImageFix" result="shape"/>
<feColorMatrix in="SourceAlpha" type="matrix" values="0 0 0 0 0 0 0 0 0 0 0 0 0 0 0 0 0 0 127 0" result="hardAlpha"/>
<feOffset dy="-0.795"/>
<feComposite in2="hardAlpha" operator="arithmetic" k2="-1" k3="1"/>
<feColorMatrix type="matrix" values="0 0 0 0 0 0 0 0 0 0 0 0 0 0 0 0 0 0 0.08 0"/>
<feBlend mode="normal" in2="shape" result="effect1_innerShadow_10_5430"/>
</filter>
<linearGradient id="paint0_linear_10_5430" x1="24.4446" y1="13.0024" x2="8.67508" y2="29.1962" gradientUnits="userSpaceOnUse">
<stop stop-color="#00A0FF"/>
<stop offset="0.0066" stop-color="#00A1FF"/>
<stop offset="0.2601" stop-color="#00BEFF"/>
<stop offset="0.5122" stop-color="#00D2FF"/>
<stop offset="0.7604" stop-color="#00DFFF"/>
<stop offset="1" stop-color="#00E3FF"/>
</linearGradient>
<linearGradient id="paint1_linear_10_5430" x1="36.0598" y1="23.6166" x2="12.7038" y2="23.6166" gradientUnits="userSpaceOnUse">
<stop stop-color="#FFE000"/>
<stop offset="0.4087" stop-color="#FFBD00"/>
<stop offset="0.7754" stop-color="#FFA500"/>
<stop offset="1" stop-color="#FF9C00"/>
</linearGradient>
<linearGradient id="paint2_linear_10_5430" x1="27.3672" y1="25.7728" x2="5.98171" y2="47.7337" gradientUnits="userSpaceOnUse">
<stop stop-color="#FF3A44"/>
<stop offset="1" stop-color="#C31162"/>
</linearGradient>
<linearGradient id="paint3_linear_10_5430" x1="10.4449" y1="4.98204" x2="19.9941" y2="14.7882" gradientUnits="userSpaceOnUse">
<stop stop-color="#32A071"/>
<stop offset="0.0685" stop-color="#2DA771"/>
<stop offset="0.4762" stop-color="#15CF74"/>
<stop offset="0.8009" stop-color="#06E775"/>
<stop offset="1" stop-color="#00F076"/>
</linearGradient>
</defs>
</svg>
