<svg width="68" height="24" viewBox="0 0 68 24" fill="none" xmlns="http://www.w3.org/2000/svg">
<path d="M1.48238 2.22345C1.03532 1.1412 0.541242 0.458834 0 0.176516V7.36973e-05H5.18821L12.247 20.294L15.5292 10.7646C16.4233 7.8705 16.841 5.52939 16.7821 3.74115C16.7234 1.95306 16.1998 0.764698 15.2115 0.176516V7.36973e-05H20.7879L12.988 22.4822L13.5174 23.9999H9.03517L1.4823 2.22353L1.48238 2.22345ZM24.7341 12.4235L19.2635 2.47053C18.5812 1.29409 17.887 0.529395 17.1812 0.176516V7.36973e-05H22.7223L28.6164 10.6941L28.8635 10.2705C29.4988 9.11765 30.0046 8.01185 30.3812 6.95298C30.7576 5.89412 30.9989 4.92363 31.1047 4.0412C31.2106 3.15893 31.1811 2.38239 31.0165 1.71187C30.8518 1.04135 30.5458 0.529469 30.0989 0.17659V0.000151079H36.5223L28.9694 12.9177V21.5294C28.9694 22.1177 29.0343 22.5823 29.1636 22.9236C29.2931 23.2648 29.5225 23.5647 29.8519 23.8236V24H23.8518V23.8236C24.1812 23.5647 24.4107 23.2648 24.54 22.9236C24.6695 22.5823 24.7342 22.1177 24.7342 21.5294V12.4236L24.7341 12.4235ZM36.2681 19.6587C36.2681 20.8116 36.3623 21.7175 36.5505 22.3764C36.7387 23.0352 37.0565 23.5175 37.5034 23.8234V23.9999H33.6211V23.8234C34.0681 23.5175 34.3858 23.0352 34.5741 22.3764C34.7623 21.7175 34.8565 20.8116 34.8565 19.6587V4.34118C34.8565 3.18829 34.7623 2.28232 34.5741 1.62358C34.3859 0.964758 34.0681 0.482455 33.6211 0.176516V7.36973e-05H38.421L49.6798 18.2117V4.34118C49.6798 3.18829 49.5856 2.28232 49.3974 1.62358C49.2092 0.964758 48.8915 0.482455 48.4445 0.176516V7.36973e-05H52.3268V0.176516C51.8798 0.482455 51.5621 0.964758 51.3739 1.62358C51.1857 2.2824 51.0915 3.18836 51.0915 4.34118V23.9999H48.2681L36.2681 4.55294V19.6587H36.2681ZM56.4493 1.41174C54.7551 1.41174 53.3787 1.72349 52.3198 2.34699C51.261 2.97057 50.4728 3.95291 49.9552 5.29409H49.7786L50.3081 0H66.8256L67.355 5.29409H67.1786C66.6609 3.95283 65.8726 2.97057 64.8139 2.34699C63.755 1.72349 62.3786 1.41174 60.6845 1.41174V21.5292C60.6845 22.1175 60.7492 22.5821 60.8785 22.9234C61.008 23.2647 61.2373 23.5646 61.5668 23.8234V23.9999H55.5668V23.8234C55.8962 23.5646 56.1257 23.2647 56.255 22.9234C56.3845 22.5821 56.4492 22.1176 56.4492 21.5292V1.41174H56.4493Z" fill="#F9B205"/>
</svg>
