<svg width="16" height="16" viewBox="0 0 16 16" fill="none" xmlns="http://www.w3.org/2000/svg">
<path d="M1.33333 4L5.94201 6.61131C7.64106 7.574 8.35893 7.574 10.058 6.61131L14.6667 4" stroke="white" stroke-linejoin="round"/>
<path d="M1.34384 8.98378C1.38742 11.0275 1.40921 12.0493 2.1633 12.8063C2.91738 13.5632 3.96688 13.5896 6.06588 13.6423C7.35953 13.6748 8.64046 13.6748 9.93413 13.6423C12.0331 13.5896 13.0826 13.5632 13.8367 12.8063C14.5908 12.0493 14.6126 11.0275 14.6561 8.98378C14.6702 8.32664 14.6702 7.67344 14.6561 7.01631C14.6126 4.97261 14.5908 3.95077 13.8367 3.19381C13.0826 2.43686 12.0331 2.41049 9.93413 2.35775C8.64046 2.32525 7.35953 2.32525 6.06587 2.35775C3.96688 2.41048 2.91738 2.43685 2.16329 3.19381C1.40921 3.95076 1.38742 4.97261 1.34383 7.01631C1.32982 7.67344 1.32983 8.32664 1.34384 8.98378Z" stroke="white" stroke-linejoin="round"/>
</svg>
